<?xml version="1.0" standalone="no"?>
<svg xmlns="http://www.w3.org/2000/svg" version="1.1" width="252" height="252">
	<!-- Created with https://api.qrserver.com (QR Code API, see goQR.me/api for information) -->
	<title>QR Code</title>
	<desc>BEGIN:VCARD
VERSION:2.1
FN:Zoltán Vadász
N:Vadász;Zoltán
TEL;HOME;VOICE:0746435178
EMAIL;HOME;INTERNET:v.zoltan88@gmail.com
EMAIL;WORK;INTERNET:vadaszzoltan@minic.ro
URL:https://minic.ro/
ADR:;;Pietroasă 18/11,;Odorheiu Secuiesc;;535600;Románia
ORG:minic studio
END:VCARD
</desc>
	<rect style="fill:rgb(255, 255, 255);fill-opacity:1" x="0" y="0" width="252" height="252" />
	<g id="elements">
		<path style="fill:rgb(0, 0, 0)" d="M 4,4 l 4,0 0,4 -4,0 z M 8,4 l 4,0 0,4 -4,0 z M 12,4 l 4,0 0,4 -4,0 z M 16,4 l 4,0 0,4 -4,0 z M 20,4 l 4,0 0,4 -4,0 z M 24,4 l 4,0 0,4 -4,0 z M 28,4 l 4,0 0,4 -4,0 z M 40,4 l 4,0 0,4 -4,0 z M 44,4 l 4,0 0,4 -4,0 z M 52,4 l 4,0 0,4 -4,0 z M 68,4 l 4,0 0,4 -4,0 z M 72,4 l 4,0 0,4 -4,0 z M 76,4 l 4,0 0,4 -4,0 z M 100,4 l 4,0 0,4 -4,0 z M 108,4 l 4,0 0,4 -4,0 z M 112,4 l 4,0 0,4 -4,0 z M 116,4 l 4,0 0,4 -4,0 z M 128,4 l 4,0 0,4 -4,0 z M 136,4 l 4,0 0,4 -4,0 z M 144,4 l 4,0 0,4 -4,0 z M 152,4 l 4,0 0,4 -4,0 z M 168,4 l 4,0 0,4 -4,0 z M 180,4 l 4,0 0,4 -4,0 z M 192,4 l 4,0 0,4 -4,0 z M 196,4 l 4,0 0,4 -4,0 z M 208,4 l 4,0 0,4 -4,0 z M 212,4 l 4,0 0,4 -4,0 z M 220,4 l 4,0 0,4 -4,0 z M 224,4 l 4,0 0,4 -4,0 z M 228,4 l 4,0 0,4 -4,0 z M 232,4 l 4,0 0,4 -4,0 z M 236,4 l 4,0 0,4 -4,0 z M 240,4 l 4,0 0,4 -4,0 z M 244,4 l 4,0 0,4 -4,0 z M 4,8 l 4,0 0,4 -4,0 z M 28,8 l 4,0 0,4 -4,0 z M 36,8 l 4,0 0,4 -4,0 z M 40,8 l 4,0 0,4 -4,0 z M 44,8 l 4,0 0,4 -4,0 z M 64,8 l 4,0 0,4 -4,0 z M 68,8 l 4,0 0,4 -4,0 z M 76,8 l 4,0 0,4 -4,0 z M 84,8 l 4,0 0,4 -4,0 z M 96,8 l 4,0 0,4 -4,0 z M 100,8 l 4,0 0,4 -4,0 z M 112,8 l 4,0 0,4 -4,0 z M 116,8 l 4,0 0,4 -4,0 z M 136,8 l 4,0 0,4 -4,0 z M 140,8 l 4,0 0,4 -4,0 z M 144,8 l 4,0 0,4 -4,0 z M 148,8 l 4,0 0,4 -4,0 z M 156,8 l 4,0 0,4 -4,0 z M 184,8 l 4,0 0,4 -4,0 z M 196,8 l 4,0 0,4 -4,0 z M 200,8 l 4,0 0,4 -4,0 z M 208,8 l 4,0 0,4 -4,0 z M 212,8 l 4,0 0,4 -4,0 z M 220,8 l 4,0 0,4 -4,0 z M 244,8 l 4,0 0,4 -4,0 z M 4,12 l 4,0 0,4 -4,0 z M 12,12 l 4,0 0,4 -4,0 z M 16,12 l 4,0 0,4 -4,0 z M 20,12 l 4,0 0,4 -4,0 z M 28,12 l 4,0 0,4 -4,0 z M 40,12 l 4,0 0,4 -4,0 z M 44,12 l 4,0 0,4 -4,0 z M 48,12 l 4,0 0,4 -4,0 z M 52,12 l 4,0 0,4 -4,0 z M 56,12 l 4,0 0,4 -4,0 z M 68,12 l 4,0 0,4 -4,0 z M 72,12 l 4,0 0,4 -4,0 z M 80,12 l 4,0 0,4 -4,0 z M 88,12 l 4,0 0,4 -4,0 z M 100,12 l 4,0 0,4 -4,0 z M 116,12 l 4,0 0,4 -4,0 z M 132,12 l 4,0 0,4 -4,0 z M 136,12 l 4,0 0,4 -4,0 z M 144,12 l 4,0 0,4 -4,0 z M 148,12 l 4,0 0,4 -4,0 z M 160,12 l 4,0 0,4 -4,0 z M 164,12 l 4,0 0,4 -4,0 z M 168,12 l 4,0 0,4 -4,0 z M 172,12 l 4,0 0,4 -4,0 z M 176,12 l 4,0 0,4 -4,0 z M 188,12 l 4,0 0,4 -4,0 z M 204,12 l 4,0 0,4 -4,0 z M 208,12 l 4,0 0,4 -4,0 z M 212,12 l 4,0 0,4 -4,0 z M 220,12 l 4,0 0,4 -4,0 z M 228,12 l 4,0 0,4 -4,0 z M 232,12 l 4,0 0,4 -4,0 z M 236,12 l 4,0 0,4 -4,0 z M 244,12 l 4,0 0,4 -4,0 z M 4,16 l 4,0 0,4 -4,0 z M 12,16 l 4,0 0,4 -4,0 z M 16,16 l 4,0 0,4 -4,0 z M 20,16 l 4,0 0,4 -4,0 z M 28,16 l 4,0 0,4 -4,0 z M 36,16 l 4,0 0,4 -4,0 z M 44,16 l 4,0 0,4 -4,0 z M 52,16 l 4,0 0,4 -4,0 z M 72,16 l 4,0 0,4 -4,0 z M 76,16 l 4,0 0,4 -4,0 z M 92,16 l 4,0 0,4 -4,0 z M 112,16 l 4,0 0,4 -4,0 z M 124,16 l 4,0 0,4 -4,0 z M 132,16 l 4,0 0,4 -4,0 z M 136,16 l 4,0 0,4 -4,0 z M 144,16 l 4,0 0,4 -4,0 z M 148,16 l 4,0 0,4 -4,0 z M 160,16 l 4,0 0,4 -4,0 z M 164,16 l 4,0 0,4 -4,0 z M 172,16 l 4,0 0,4 -4,0 z M 176,16 l 4,0 0,4 -4,0 z M 188,16 l 4,0 0,4 -4,0 z M 192,16 l 4,0 0,4 -4,0 z M 196,16 l 4,0 0,4 -4,0 z M 204,16 l 4,0 0,4 -4,0 z M 212,16 l 4,0 0,4 -4,0 z M 220,16 l 4,0 0,4 -4,0 z M 228,16 l 4,0 0,4 -4,0 z M 232,16 l 4,0 0,4 -4,0 z M 236,16 l 4,0 0,4 -4,0 z M 244,16 l 4,0 0,4 -4,0 z M 4,20 l 4,0 0,4 -4,0 z M 12,20 l 4,0 0,4 -4,0 z M 16,20 l 4,0 0,4 -4,0 z M 20,20 l 4,0 0,4 -4,0 z M 28,20 l 4,0 0,4 -4,0 z M 40,20 l 4,0 0,4 -4,0 z M 48,20 l 4,0 0,4 -4,0 z M 60,20 l 4,0 0,4 -4,0 z M 64,20 l 4,0 0,4 -4,0 z M 72,20 l 4,0 0,4 -4,0 z M 88,20 l 4,0 0,4 -4,0 z M 96,20 l 4,0 0,4 -4,0 z M 100,20 l 4,0 0,4 -4,0 z M 104,20 l 4,0 0,4 -4,0 z M 116,20 l 4,0 0,4 -4,0 z M 120,20 l 4,0 0,4 -4,0 z M 124,20 l 4,0 0,4 -4,0 z M 128,20 l 4,0 0,4 -4,0 z M 132,20 l 4,0 0,4 -4,0 z M 136,20 l 4,0 0,4 -4,0 z M 148,20 l 4,0 0,4 -4,0 z M 152,20 l 4,0 0,4 -4,0 z M 164,20 l 4,0 0,4 -4,0 z M 168,20 l 4,0 0,4 -4,0 z M 172,20 l 4,0 0,4 -4,0 z M 184,20 l 4,0 0,4 -4,0 z M 192,20 l 4,0 0,4 -4,0 z M 196,20 l 4,0 0,4 -4,0 z M 204,20 l 4,0 0,4 -4,0 z M 208,20 l 4,0 0,4 -4,0 z M 220,20 l 4,0 0,4 -4,0 z M 228,20 l 4,0 0,4 -4,0 z M 232,20 l 4,0 0,4 -4,0 z M 236,20 l 4,0 0,4 -4,0 z M 244,20 l 4,0 0,4 -4,0 z M 4,24 l 4,0 0,4 -4,0 z M 28,24 l 4,0 0,4 -4,0 z M 36,24 l 4,0 0,4 -4,0 z M 52,24 l 4,0 0,4 -4,0 z M 56,24 l 4,0 0,4 -4,0 z M 68,24 l 4,0 0,4 -4,0 z M 76,24 l 4,0 0,4 -4,0 z M 84,24 l 4,0 0,4 -4,0 z M 88,24 l 4,0 0,4 -4,0 z M 92,24 l 4,0 0,4 -4,0 z M 104,24 l 4,0 0,4 -4,0 z M 108,24 l 4,0 0,4 -4,0 z M 116,24 l 4,0 0,4 -4,0 z M 132,24 l 4,0 0,4 -4,0 z M 136,24 l 4,0 0,4 -4,0 z M 152,24 l 4,0 0,4 -4,0 z M 156,24 l 4,0 0,4 -4,0 z M 160,24 l 4,0 0,4 -4,0 z M 176,24 l 4,0 0,4 -4,0 z M 180,24 l 4,0 0,4 -4,0 z M 188,24 l 4,0 0,4 -4,0 z M 204,24 l 4,0 0,4 -4,0 z M 220,24 l 4,0 0,4 -4,0 z M 244,24 l 4,0 0,4 -4,0 z M 4,28 l 4,0 0,4 -4,0 z M 8,28 l 4,0 0,4 -4,0 z M 12,28 l 4,0 0,4 -4,0 z M 16,28 l 4,0 0,4 -4,0 z M 20,28 l 4,0 0,4 -4,0 z M 24,28 l 4,0 0,4 -4,0 z M 28,28 l 4,0 0,4 -4,0 z M 36,28 l 4,0 0,4 -4,0 z M 44,28 l 4,0 0,4 -4,0 z M 52,28 l 4,0 0,4 -4,0 z M 60,28 l 4,0 0,4 -4,0 z M 68,28 l 4,0 0,4 -4,0 z M 76,28 l 4,0 0,4 -4,0 z M 84,28 l 4,0 0,4 -4,0 z M 92,28 l 4,0 0,4 -4,0 z M 100,28 l 4,0 0,4 -4,0 z M 108,28 l 4,0 0,4 -4,0 z M 116,28 l 4,0 0,4 -4,0 z M 124,28 l 4,0 0,4 -4,0 z M 132,28 l 4,0 0,4 -4,0 z M 140,28 l 4,0 0,4 -4,0 z M 148,28 l 4,0 0,4 -4,0 z M 156,28 l 4,0 0,4 -4,0 z M 164,28 l 4,0 0,4 -4,0 z M 172,28 l 4,0 0,4 -4,0 z M 180,28 l 4,0 0,4 -4,0 z M 188,28 l 4,0 0,4 -4,0 z M 196,28 l 4,0 0,4 -4,0 z M 204,28 l 4,0 0,4 -4,0 z M 212,28 l 4,0 0,4 -4,0 z M 220,28 l 4,0 0,4 -4,0 z M 224,28 l 4,0 0,4 -4,0 z M 228,28 l 4,0 0,4 -4,0 z M 232,28 l 4,0 0,4 -4,0 z M 236,28 l 4,0 0,4 -4,0 z M 240,28 l 4,0 0,4 -4,0 z M 244,28 l 4,0 0,4 -4,0 z M 40,32 l 4,0 0,4 -4,0 z M 44,32 l 4,0 0,4 -4,0 z M 48,32 l 4,0 0,4 -4,0 z M 52,32 l 4,0 0,4 -4,0 z M 56,32 l 4,0 0,4 -4,0 z M 60,32 l 4,0 0,4 -4,0 z M 64,32 l 4,0 0,4 -4,0 z M 68,32 l 4,0 0,4 -4,0 z M 72,32 l 4,0 0,4 -4,0 z M 76,32 l 4,0 0,4 -4,0 z M 100,32 l 4,0 0,4 -4,0 z M 108,32 l 4,0 0,4 -4,0 z M 112,32 l 4,0 0,4 -4,0 z M 116,32 l 4,0 0,4 -4,0 z M 132,32 l 4,0 0,4 -4,0 z M 160,32 l 4,0 0,4 -4,0 z M 164,32 l 4,0 0,4 -4,0 z M 168,32 l 4,0 0,4 -4,0 z M 172,32 l 4,0 0,4 -4,0 z M 180,32 l 4,0 0,4 -4,0 z M 184,32 l 4,0 0,4 -4,0 z M 200,32 l 4,0 0,4 -4,0 z M 208,32 l 4,0 0,4 -4,0 z M 4,36 l 4,0 0,4 -4,0 z M 8,36 l 4,0 0,4 -4,0 z M 12,36 l 4,0 0,4 -4,0 z M 16,36 l 4,0 0,4 -4,0 z M 20,36 l 4,0 0,4 -4,0 z M 28,36 l 4,0 0,4 -4,0 z M 32,36 l 4,0 0,4 -4,0 z M 36,36 l 4,0 0,4 -4,0 z M 40,36 l 4,0 0,4 -4,0 z M 44,36 l 4,0 0,4 -4,0 z M 48,36 l 4,0 0,4 -4,0 z M 56,36 l 4,0 0,4 -4,0 z M 64,36 l 4,0 0,4 -4,0 z M 76,36 l 4,0 0,4 -4,0 z M 88,36 l 4,0 0,4 -4,0 z M 92,36 l 4,0 0,4 -4,0 z M 96,36 l 4,0 0,4 -4,0 z M 104,36 l 4,0 0,4 -4,0 z M 108,36 l 4,0 0,4 -4,0 z M 116,36 l 4,0 0,4 -4,0 z M 120,36 l 4,0 0,4 -4,0 z M 124,36 l 4,0 0,4 -4,0 z M 128,36 l 4,0 0,4 -4,0 z M 132,36 l 4,0 0,4 -4,0 z M 136,36 l 4,0 0,4 -4,0 z M 152,36 l 4,0 0,4 -4,0 z M 156,36 l 4,0 0,4 -4,0 z M 160,36 l 4,0 0,4 -4,0 z M 180,36 l 4,0 0,4 -4,0 z M 184,36 l 4,0 0,4 -4,0 z M 188,36 l 4,0 0,4 -4,0 z M 204,36 l 4,0 0,4 -4,0 z M 208,36 l 4,0 0,4 -4,0 z M 216,36 l 4,0 0,4 -4,0 z M 224,36 l 4,0 0,4 -4,0 z M 232,36 l 4,0 0,4 -4,0 z M 240,36 l 4,0 0,4 -4,0 z M 16,40 l 4,0 0,4 -4,0 z M 20,40 l 4,0 0,4 -4,0 z M 48,40 l 4,0 0,4 -4,0 z M 68,40 l 4,0 0,4 -4,0 z M 72,40 l 4,0 0,4 -4,0 z M 76,40 l 4,0 0,4 -4,0 z M 80,40 l 4,0 0,4 -4,0 z M 84,40 l 4,0 0,4 -4,0 z M 88,40 l 4,0 0,4 -4,0 z M 92,40 l 4,0 0,4 -4,0 z M 96,40 l 4,0 0,4 -4,0 z M 100,40 l 4,0 0,4 -4,0 z M 124,40 l 4,0 0,4 -4,0 z M 128,40 l 4,0 0,4 -4,0 z M 140,40 l 4,0 0,4 -4,0 z M 148,40 l 4,0 0,4 -4,0 z M 156,40 l 4,0 0,4 -4,0 z M 168,40 l 4,0 0,4 -4,0 z M 176,40 l 4,0 0,4 -4,0 z M 188,40 l 4,0 0,4 -4,0 z M 192,40 l 4,0 0,4 -4,0 z M 212,40 l 4,0 0,4 -4,0 z M 216,40 l 4,0 0,4 -4,0 z M 220,40 l 4,0 0,4 -4,0 z M 224,40 l 4,0 0,4 -4,0 z M 232,40 l 4,0 0,4 -4,0 z M 240,40 l 4,0 0,4 -4,0 z M 4,44 l 4,0 0,4 -4,0 z M 12,44 l 4,0 0,4 -4,0 z M 16,44 l 4,0 0,4 -4,0 z M 20,44 l 4,0 0,4 -4,0 z M 24,44 l 4,0 0,4 -4,0 z M 28,44 l 4,0 0,4 -4,0 z M 32,44 l 4,0 0,4 -4,0 z M 40,44 l 4,0 0,4 -4,0 z M 48,44 l 4,0 0,4 -4,0 z M 52,44 l 4,0 0,4 -4,0 z M 64,44 l 4,0 0,4 -4,0 z M 68,44 l 4,0 0,4 -4,0 z M 76,44 l 4,0 0,4 -4,0 z M 84,44 l 4,0 0,4 -4,0 z M 88,44 l 4,0 0,4 -4,0 z M 92,44 l 4,0 0,4 -4,0 z M 104,44 l 4,0 0,4 -4,0 z M 124,44 l 4,0 0,4 -4,0 z M 136,44 l 4,0 0,4 -4,0 z M 140,44 l 4,0 0,4 -4,0 z M 148,44 l 4,0 0,4 -4,0 z M 156,44 l 4,0 0,4 -4,0 z M 168,44 l 4,0 0,4 -4,0 z M 176,44 l 4,0 0,4 -4,0 z M 188,44 l 4,0 0,4 -4,0 z M 196,44 l 4,0 0,4 -4,0 z M 208,44 l 4,0 0,4 -4,0 z M 220,44 l 4,0 0,4 -4,0 z M 224,44 l 4,0 0,4 -4,0 z M 228,44 l 4,0 0,4 -4,0 z M 240,44 l 4,0 0,4 -4,0 z M 244,44 l 4,0 0,4 -4,0 z M 4,48 l 4,0 0,4 -4,0 z M 8,48 l 4,0 0,4 -4,0 z M 12,48 l 4,0 0,4 -4,0 z M 16,48 l 4,0 0,4 -4,0 z M 24,48 l 4,0 0,4 -4,0 z M 40,48 l 4,0 0,4 -4,0 z M 76,48 l 4,0 0,4 -4,0 z M 80,48 l 4,0 0,4 -4,0 z M 84,48 l 4,0 0,4 -4,0 z M 88,48 l 4,0 0,4 -4,0 z M 100,48 l 4,0 0,4 -4,0 z M 104,48 l 4,0 0,4 -4,0 z M 108,48 l 4,0 0,4 -4,0 z M 112,48 l 4,0 0,4 -4,0 z M 120,48 l 4,0 0,4 -4,0 z M 128,48 l 4,0 0,4 -4,0 z M 140,48 l 4,0 0,4 -4,0 z M 144,48 l 4,0 0,4 -4,0 z M 148,48 l 4,0 0,4 -4,0 z M 152,48 l 4,0 0,4 -4,0 z M 156,48 l 4,0 0,4 -4,0 z M 164,48 l 4,0 0,4 -4,0 z M 168,48 l 4,0 0,4 -4,0 z M 180,48 l 4,0 0,4 -4,0 z M 188,48 l 4,0 0,4 -4,0 z M 196,48 l 4,0 0,4 -4,0 z M 220,48 l 4,0 0,4 -4,0 z M 228,48 l 4,0 0,4 -4,0 z M 232,48 l 4,0 0,4 -4,0 z M 240,48 l 4,0 0,4 -4,0 z M 244,48 l 4,0 0,4 -4,0 z M 12,52 l 4,0 0,4 -4,0 z M 16,52 l 4,0 0,4 -4,0 z M 20,52 l 4,0 0,4 -4,0 z M 24,52 l 4,0 0,4 -4,0 z M 28,52 l 4,0 0,4 -4,0 z M 40,52 l 4,0 0,4 -4,0 z M 44,52 l 4,0 0,4 -4,0 z M 52,52 l 4,0 0,4 -4,0 z M 64,52 l 4,0 0,4 -4,0 z M 68,52 l 4,0 0,4 -4,0 z M 72,52 l 4,0 0,4 -4,0 z M 84,52 l 4,0 0,4 -4,0 z M 96,52 l 4,0 0,4 -4,0 z M 100,52 l 4,0 0,4 -4,0 z M 104,52 l 4,0 0,4 -4,0 z M 120,52 l 4,0 0,4 -4,0 z M 124,52 l 4,0 0,4 -4,0 z M 136,52 l 4,0 0,4 -4,0 z M 144,52 l 4,0 0,4 -4,0 z M 148,52 l 4,0 0,4 -4,0 z M 152,52 l 4,0 0,4 -4,0 z M 172,52 l 4,0 0,4 -4,0 z M 176,52 l 4,0 0,4 -4,0 z M 184,52 l 4,0 0,4 -4,0 z M 188,52 l 4,0 0,4 -4,0 z M 192,52 l 4,0 0,4 -4,0 z M 196,52 l 4,0 0,4 -4,0 z M 200,52 l 4,0 0,4 -4,0 z M 204,52 l 4,0 0,4 -4,0 z M 220,52 l 4,0 0,4 -4,0 z M 224,52 l 4,0 0,4 -4,0 z M 232,52 l 4,0 0,4 -4,0 z M 240,52 l 4,0 0,4 -4,0 z M 244,52 l 4,0 0,4 -4,0 z M 4,56 l 4,0 0,4 -4,0 z M 20,56 l 4,0 0,4 -4,0 z M 24,56 l 4,0 0,4 -4,0 z M 32,56 l 4,0 0,4 -4,0 z M 40,56 l 4,0 0,4 -4,0 z M 48,56 l 4,0 0,4 -4,0 z M 52,56 l 4,0 0,4 -4,0 z M 64,56 l 4,0 0,4 -4,0 z M 68,56 l 4,0 0,4 -4,0 z M 72,56 l 4,0 0,4 -4,0 z M 76,56 l 4,0 0,4 -4,0 z M 80,56 l 4,0 0,4 -4,0 z M 88,56 l 4,0 0,4 -4,0 z M 92,56 l 4,0 0,4 -4,0 z M 96,56 l 4,0 0,4 -4,0 z M 100,56 l 4,0 0,4 -4,0 z M 112,56 l 4,0 0,4 -4,0 z M 120,56 l 4,0 0,4 -4,0 z M 140,56 l 4,0 0,4 -4,0 z M 148,56 l 4,0 0,4 -4,0 z M 152,56 l 4,0 0,4 -4,0 z M 160,56 l 4,0 0,4 -4,0 z M 168,56 l 4,0 0,4 -4,0 z M 176,56 l 4,0 0,4 -4,0 z M 200,56 l 4,0 0,4 -4,0 z M 212,56 l 4,0 0,4 -4,0 z M 216,56 l 4,0 0,4 -4,0 z M 220,56 l 4,0 0,4 -4,0 z M 224,56 l 4,0 0,4 -4,0 z M 228,56 l 4,0 0,4 -4,0 z M 244,56 l 4,0 0,4 -4,0 z M 16,60 l 4,0 0,4 -4,0 z M 20,60 l 4,0 0,4 -4,0 z M 28,60 l 4,0 0,4 -4,0 z M 36,60 l 4,0 0,4 -4,0 z M 64,60 l 4,0 0,4 -4,0 z M 72,60 l 4,0 0,4 -4,0 z M 76,60 l 4,0 0,4 -4,0 z M 80,60 l 4,0 0,4 -4,0 z M 92,60 l 4,0 0,4 -4,0 z M 100,60 l 4,0 0,4 -4,0 z M 104,60 l 4,0 0,4 -4,0 z M 112,60 l 4,0 0,4 -4,0 z M 136,60 l 4,0 0,4 -4,0 z M 152,60 l 4,0 0,4 -4,0 z M 156,60 l 4,0 0,4 -4,0 z M 164,60 l 4,0 0,4 -4,0 z M 168,60 l 4,0 0,4 -4,0 z M 176,60 l 4,0 0,4 -4,0 z M 184,60 l 4,0 0,4 -4,0 z M 188,60 l 4,0 0,4 -4,0 z M 200,60 l 4,0 0,4 -4,0 z M 212,60 l 4,0 0,4 -4,0 z M 216,60 l 4,0 0,4 -4,0 z M 220,60 l 4,0 0,4 -4,0 z M 224,60 l 4,0 0,4 -4,0 z M 228,60 l 4,0 0,4 -4,0 z M 232,60 l 4,0 0,4 -4,0 z M 236,60 l 4,0 0,4 -4,0 z M 12,64 l 4,0 0,4 -4,0 z M 16,64 l 4,0 0,4 -4,0 z M 24,64 l 4,0 0,4 -4,0 z M 48,64 l 4,0 0,4 -4,0 z M 52,64 l 4,0 0,4 -4,0 z M 56,64 l 4,0 0,4 -4,0 z M 64,64 l 4,0 0,4 -4,0 z M 80,64 l 4,0 0,4 -4,0 z M 88,64 l 4,0 0,4 -4,0 z M 92,64 l 4,0 0,4 -4,0 z M 96,64 l 4,0 0,4 -4,0 z M 100,64 l 4,0 0,4 -4,0 z M 112,64 l 4,0 0,4 -4,0 z M 120,64 l 4,0 0,4 -4,0 z M 132,64 l 4,0 0,4 -4,0 z M 148,64 l 4,0 0,4 -4,0 z M 152,64 l 4,0 0,4 -4,0 z M 160,64 l 4,0 0,4 -4,0 z M 168,64 l 4,0 0,4 -4,0 z M 172,64 l 4,0 0,4 -4,0 z M 176,64 l 4,0 0,4 -4,0 z M 180,64 l 4,0 0,4 -4,0 z M 184,64 l 4,0 0,4 -4,0 z M 196,64 l 4,0 0,4 -4,0 z M 208,64 l 4,0 0,4 -4,0 z M 216,64 l 4,0 0,4 -4,0 z M 220,64 l 4,0 0,4 -4,0 z M 228,64 l 4,0 0,4 -4,0 z M 236,64 l 4,0 0,4 -4,0 z M 240,64 l 4,0 0,4 -4,0 z M 244,64 l 4,0 0,4 -4,0 z M 4,68 l 4,0 0,4 -4,0 z M 8,68 l 4,0 0,4 -4,0 z M 16,68 l 4,0 0,4 -4,0 z M 20,68 l 4,0 0,4 -4,0 z M 24,68 l 4,0 0,4 -4,0 z M 28,68 l 4,0 0,4 -4,0 z M 32,68 l 4,0 0,4 -4,0 z M 36,68 l 4,0 0,4 -4,0 z M 40,68 l 4,0 0,4 -4,0 z M 44,68 l 4,0 0,4 -4,0 z M 72,68 l 4,0 0,4 -4,0 z M 76,68 l 4,0 0,4 -4,0 z M 84,68 l 4,0 0,4 -4,0 z M 92,68 l 4,0 0,4 -4,0 z M 100,68 l 4,0 0,4 -4,0 z M 108,68 l 4,0 0,4 -4,0 z M 112,68 l 4,0 0,4 -4,0 z M 124,68 l 4,0 0,4 -4,0 z M 136,68 l 4,0 0,4 -4,0 z M 140,68 l 4,0 0,4 -4,0 z M 144,68 l 4,0 0,4 -4,0 z M 148,68 l 4,0 0,4 -4,0 z M 156,68 l 4,0 0,4 -4,0 z M 160,68 l 4,0 0,4 -4,0 z M 168,68 l 4,0 0,4 -4,0 z M 184,68 l 4,0 0,4 -4,0 z M 196,68 l 4,0 0,4 -4,0 z M 200,68 l 4,0 0,4 -4,0 z M 204,68 l 4,0 0,4 -4,0 z M 212,68 l 4,0 0,4 -4,0 z M 216,68 l 4,0 0,4 -4,0 z M 224,68 l 4,0 0,4 -4,0 z M 228,68 l 4,0 0,4 -4,0 z M 240,68 l 4,0 0,4 -4,0 z M 244,68 l 4,0 0,4 -4,0 z M 12,72 l 4,0 0,4 -4,0 z M 16,72 l 4,0 0,4 -4,0 z M 36,72 l 4,0 0,4 -4,0 z M 40,72 l 4,0 0,4 -4,0 z M 44,72 l 4,0 0,4 -4,0 z M 52,72 l 4,0 0,4 -4,0 z M 56,72 l 4,0 0,4 -4,0 z M 64,72 l 4,0 0,4 -4,0 z M 76,72 l 4,0 0,4 -4,0 z M 80,72 l 4,0 0,4 -4,0 z M 88,72 l 4,0 0,4 -4,0 z M 96,72 l 4,0 0,4 -4,0 z M 104,72 l 4,0 0,4 -4,0 z M 120,72 l 4,0 0,4 -4,0 z M 124,72 l 4,0 0,4 -4,0 z M 128,72 l 4,0 0,4 -4,0 z M 140,72 l 4,0 0,4 -4,0 z M 144,72 l 4,0 0,4 -4,0 z M 160,72 l 4,0 0,4 -4,0 z M 164,72 l 4,0 0,4 -4,0 z M 172,72 l 4,0 0,4 -4,0 z M 180,72 l 4,0 0,4 -4,0 z M 184,72 l 4,0 0,4 -4,0 z M 192,72 l 4,0 0,4 -4,0 z M 196,72 l 4,0 0,4 -4,0 z M 204,72 l 4,0 0,4 -4,0 z M 220,72 l 4,0 0,4 -4,0 z M 228,72 l 4,0 0,4 -4,0 z M 244,72 l 4,0 0,4 -4,0 z M 4,76 l 4,0 0,4 -4,0 z M 16,76 l 4,0 0,4 -4,0 z M 20,76 l 4,0 0,4 -4,0 z M 24,76 l 4,0 0,4 -4,0 z M 28,76 l 4,0 0,4 -4,0 z M 44,76 l 4,0 0,4 -4,0 z M 48,76 l 4,0 0,4 -4,0 z M 52,76 l 4,0 0,4 -4,0 z M 56,76 l 4,0 0,4 -4,0 z M 60,76 l 4,0 0,4 -4,0 z M 72,76 l 4,0 0,4 -4,0 z M 76,76 l 4,0 0,4 -4,0 z M 80,76 l 4,0 0,4 -4,0 z M 84,76 l 4,0 0,4 -4,0 z M 88,76 l 4,0 0,4 -4,0 z M 104,76 l 4,0 0,4 -4,0 z M 120,76 l 4,0 0,4 -4,0 z M 132,76 l 4,0 0,4 -4,0 z M 140,76 l 4,0 0,4 -4,0 z M 144,76 l 4,0 0,4 -4,0 z M 148,76 l 4,0 0,4 -4,0 z M 152,76 l 4,0 0,4 -4,0 z M 160,76 l 4,0 0,4 -4,0 z M 176,76 l 4,0 0,4 -4,0 z M 184,76 l 4,0 0,4 -4,0 z M 196,76 l 4,0 0,4 -4,0 z M 204,76 l 4,0 0,4 -4,0 z M 232,76 l 4,0 0,4 -4,0 z M 244,76 l 4,0 0,4 -4,0 z M 4,80 l 4,0 0,4 -4,0 z M 8,80 l 4,0 0,4 -4,0 z M 20,80 l 4,0 0,4 -4,0 z M 24,80 l 4,0 0,4 -4,0 z M 36,80 l 4,0 0,4 -4,0 z M 44,80 l 4,0 0,4 -4,0 z M 48,80 l 4,0 0,4 -4,0 z M 52,80 l 4,0 0,4 -4,0 z M 60,80 l 4,0 0,4 -4,0 z M 64,80 l 4,0 0,4 -4,0 z M 72,80 l 4,0 0,4 -4,0 z M 76,80 l 4,0 0,4 -4,0 z M 80,80 l 4,0 0,4 -4,0 z M 92,80 l 4,0 0,4 -4,0 z M 96,80 l 4,0 0,4 -4,0 z M 104,80 l 4,0 0,4 -4,0 z M 112,80 l 4,0 0,4 -4,0 z M 116,80 l 4,0 0,4 -4,0 z M 124,80 l 4,0 0,4 -4,0 z M 132,80 l 4,0 0,4 -4,0 z M 140,80 l 4,0 0,4 -4,0 z M 144,80 l 4,0 0,4 -4,0 z M 148,80 l 4,0 0,4 -4,0 z M 180,80 l 4,0 0,4 -4,0 z M 204,80 l 4,0 0,4 -4,0 z M 208,80 l 4,0 0,4 -4,0 z M 216,80 l 4,0 0,4 -4,0 z M 224,80 l 4,0 0,4 -4,0 z M 232,80 l 4,0 0,4 -4,0 z M 244,80 l 4,0 0,4 -4,0 z M 4,84 l 4,0 0,4 -4,0 z M 24,84 l 4,0 0,4 -4,0 z M 28,84 l 4,0 0,4 -4,0 z M 32,84 l 4,0 0,4 -4,0 z M 40,84 l 4,0 0,4 -4,0 z M 44,84 l 4,0 0,4 -4,0 z M 48,84 l 4,0 0,4 -4,0 z M 60,84 l 4,0 0,4 -4,0 z M 68,84 l 4,0 0,4 -4,0 z M 72,84 l 4,0 0,4 -4,0 z M 76,84 l 4,0 0,4 -4,0 z M 80,84 l 4,0 0,4 -4,0 z M 84,84 l 4,0 0,4 -4,0 z M 88,84 l 4,0 0,4 -4,0 z M 92,84 l 4,0 0,4 -4,0 z M 96,84 l 4,0 0,4 -4,0 z M 112,84 l 4,0 0,4 -4,0 z M 116,84 l 4,0 0,4 -4,0 z M 120,84 l 4,0 0,4 -4,0 z M 132,84 l 4,0 0,4 -4,0 z M 136,84 l 4,0 0,4 -4,0 z M 140,84 l 4,0 0,4 -4,0 z M 144,84 l 4,0 0,4 -4,0 z M 168,84 l 4,0 0,4 -4,0 z M 172,84 l 4,0 0,4 -4,0 z M 176,84 l 4,0 0,4 -4,0 z M 180,84 l 4,0 0,4 -4,0 z M 192,84 l 4,0 0,4 -4,0 z M 196,84 l 4,0 0,4 -4,0 z M 204,84 l 4,0 0,4 -4,0 z M 208,84 l 4,0 0,4 -4,0 z M 212,84 l 4,0 0,4 -4,0 z M 216,84 l 4,0 0,4 -4,0 z M 220,84 l 4,0 0,4 -4,0 z M 224,84 l 4,0 0,4 -4,0 z M 232,84 l 4,0 0,4 -4,0 z M 240,84 l 4,0 0,4 -4,0 z M 244,84 l 4,0 0,4 -4,0 z M 4,88 l 4,0 0,4 -4,0 z M 16,88 l 4,0 0,4 -4,0 z M 20,88 l 4,0 0,4 -4,0 z M 36,88 l 4,0 0,4 -4,0 z M 44,88 l 4,0 0,4 -4,0 z M 48,88 l 4,0 0,4 -4,0 z M 64,88 l 4,0 0,4 -4,0 z M 84,88 l 4,0 0,4 -4,0 z M 92,88 l 4,0 0,4 -4,0 z M 96,88 l 4,0 0,4 -4,0 z M 100,88 l 4,0 0,4 -4,0 z M 108,88 l 4,0 0,4 -4,0 z M 116,88 l 4,0 0,4 -4,0 z M 124,88 l 4,0 0,4 -4,0 z M 128,88 l 4,0 0,4 -4,0 z M 132,88 l 4,0 0,4 -4,0 z M 140,88 l 4,0 0,4 -4,0 z M 156,88 l 4,0 0,4 -4,0 z M 164,88 l 4,0 0,4 -4,0 z M 168,88 l 4,0 0,4 -4,0 z M 172,88 l 4,0 0,4 -4,0 z M 184,88 l 4,0 0,4 -4,0 z M 188,88 l 4,0 0,4 -4,0 z M 192,88 l 4,0 0,4 -4,0 z M 196,88 l 4,0 0,4 -4,0 z M 200,88 l 4,0 0,4 -4,0 z M 216,88 l 4,0 0,4 -4,0 z M 224,88 l 4,0 0,4 -4,0 z M 228,88 l 4,0 0,4 -4,0 z M 232,88 l 4,0 0,4 -4,0 z M 4,92 l 4,0 0,4 -4,0 z M 12,92 l 4,0 0,4 -4,0 z M 20,92 l 4,0 0,4 -4,0 z M 24,92 l 4,0 0,4 -4,0 z M 28,92 l 4,0 0,4 -4,0 z M 32,92 l 4,0 0,4 -4,0 z M 56,92 l 4,0 0,4 -4,0 z M 68,92 l 4,0 0,4 -4,0 z M 72,92 l 4,0 0,4 -4,0 z M 80,92 l 4,0 0,4 -4,0 z M 84,92 l 4,0 0,4 -4,0 z M 92,92 l 4,0 0,4 -4,0 z M 96,92 l 4,0 0,4 -4,0 z M 116,92 l 4,0 0,4 -4,0 z M 136,92 l 4,0 0,4 -4,0 z M 148,92 l 4,0 0,4 -4,0 z M 160,92 l 4,0 0,4 -4,0 z M 192,92 l 4,0 0,4 -4,0 z M 220,92 l 4,0 0,4 -4,0 z M 240,92 l 4,0 0,4 -4,0 z M 244,92 l 4,0 0,4 -4,0 z M 4,96 l 4,0 0,4 -4,0 z M 8,96 l 4,0 0,4 -4,0 z M 12,96 l 4,0 0,4 -4,0 z M 16,96 l 4,0 0,4 -4,0 z M 20,96 l 4,0 0,4 -4,0 z M 24,96 l 4,0 0,4 -4,0 z M 36,96 l 4,0 0,4 -4,0 z M 48,96 l 4,0 0,4 -4,0 z M 56,96 l 4,0 0,4 -4,0 z M 64,96 l 4,0 0,4 -4,0 z M 68,96 l 4,0 0,4 -4,0 z M 88,96 l 4,0 0,4 -4,0 z M 96,96 l 4,0 0,4 -4,0 z M 104,96 l 4,0 0,4 -4,0 z M 116,96 l 4,0 0,4 -4,0 z M 136,96 l 4,0 0,4 -4,0 z M 160,96 l 4,0 0,4 -4,0 z M 168,96 l 4,0 0,4 -4,0 z M 172,96 l 4,0 0,4 -4,0 z M 180,96 l 4,0 0,4 -4,0 z M 184,96 l 4,0 0,4 -4,0 z M 192,96 l 4,0 0,4 -4,0 z M 200,96 l 4,0 0,4 -4,0 z M 208,96 l 4,0 0,4 -4,0 z M 212,96 l 4,0 0,4 -4,0 z M 220,96 l 4,0 0,4 -4,0 z M 240,96 l 4,0 0,4 -4,0 z M 244,96 l 4,0 0,4 -4,0 z M 8,100 l 4,0 0,4 -4,0 z M 20,100 l 4,0 0,4 -4,0 z M 28,100 l 4,0 0,4 -4,0 z M 36,100 l 4,0 0,4 -4,0 z M 48,100 l 4,0 0,4 -4,0 z M 56,100 l 4,0 0,4 -4,0 z M 60,100 l 4,0 0,4 -4,0 z M 68,100 l 4,0 0,4 -4,0 z M 72,100 l 4,0 0,4 -4,0 z M 80,100 l 4,0 0,4 -4,0 z M 88,100 l 4,0 0,4 -4,0 z M 92,100 l 4,0 0,4 -4,0 z M 96,100 l 4,0 0,4 -4,0 z M 100,100 l 4,0 0,4 -4,0 z M 112,100 l 4,0 0,4 -4,0 z M 116,100 l 4,0 0,4 -4,0 z M 120,100 l 4,0 0,4 -4,0 z M 124,100 l 4,0 0,4 -4,0 z M 128,100 l 4,0 0,4 -4,0 z M 132,100 l 4,0 0,4 -4,0 z M 140,100 l 4,0 0,4 -4,0 z M 152,100 l 4,0 0,4 -4,0 z M 156,100 l 4,0 0,4 -4,0 z M 180,100 l 4,0 0,4 -4,0 z M 184,100 l 4,0 0,4 -4,0 z M 188,100 l 4,0 0,4 -4,0 z M 196,100 l 4,0 0,4 -4,0 z M 204,100 l 4,0 0,4 -4,0 z M 208,100 l 4,0 0,4 -4,0 z M 212,100 l 4,0 0,4 -4,0 z M 220,100 l 4,0 0,4 -4,0 z M 224,100 l 4,0 0,4 -4,0 z M 232,100 l 4,0 0,4 -4,0 z M 244,100 l 4,0 0,4 -4,0 z M 4,104 l 4,0 0,4 -4,0 z M 8,104 l 4,0 0,4 -4,0 z M 16,104 l 4,0 0,4 -4,0 z M 20,104 l 4,0 0,4 -4,0 z M 24,104 l 4,0 0,4 -4,0 z M 32,104 l 4,0 0,4 -4,0 z M 36,104 l 4,0 0,4 -4,0 z M 44,104 l 4,0 0,4 -4,0 z M 48,104 l 4,0 0,4 -4,0 z M 52,104 l 4,0 0,4 -4,0 z M 56,104 l 4,0 0,4 -4,0 z M 68,104 l 4,0 0,4 -4,0 z M 76,104 l 4,0 0,4 -4,0 z M 88,104 l 4,0 0,4 -4,0 z M 92,104 l 4,0 0,4 -4,0 z M 96,104 l 4,0 0,4 -4,0 z M 104,104 l 4,0 0,4 -4,0 z M 136,104 l 4,0 0,4 -4,0 z M 140,104 l 4,0 0,4 -4,0 z M 144,104 l 4,0 0,4 -4,0 z M 156,104 l 4,0 0,4 -4,0 z M 160,104 l 4,0 0,4 -4,0 z M 168,104 l 4,0 0,4 -4,0 z M 176,104 l 4,0 0,4 -4,0 z M 180,104 l 4,0 0,4 -4,0 z M 188,104 l 4,0 0,4 -4,0 z M 192,104 l 4,0 0,4 -4,0 z M 200,104 l 4,0 0,4 -4,0 z M 208,104 l 4,0 0,4 -4,0 z M 220,104 l 4,0 0,4 -4,0 z M 224,104 l 4,0 0,4 -4,0 z M 228,104 l 4,0 0,4 -4,0 z M 232,104 l 4,0 0,4 -4,0 z M 240,104 l 4,0 0,4 -4,0 z M 8,108 l 4,0 0,4 -4,0 z M 16,108 l 4,0 0,4 -4,0 z M 20,108 l 4,0 0,4 -4,0 z M 28,108 l 4,0 0,4 -4,0 z M 44,108 l 4,0 0,4 -4,0 z M 52,108 l 4,0 0,4 -4,0 z M 56,108 l 4,0 0,4 -4,0 z M 64,108 l 4,0 0,4 -4,0 z M 68,108 l 4,0 0,4 -4,0 z M 72,108 l 4,0 0,4 -4,0 z M 76,108 l 4,0 0,4 -4,0 z M 80,108 l 4,0 0,4 -4,0 z M 100,108 l 4,0 0,4 -4,0 z M 104,108 l 4,0 0,4 -4,0 z M 108,108 l 4,0 0,4 -4,0 z M 112,108 l 4,0 0,4 -4,0 z M 120,108 l 4,0 0,4 -4,0 z M 124,108 l 4,0 0,4 -4,0 z M 128,108 l 4,0 0,4 -4,0 z M 132,108 l 4,0 0,4 -4,0 z M 136,108 l 4,0 0,4 -4,0 z M 140,108 l 4,0 0,4 -4,0 z M 144,108 l 4,0 0,4 -4,0 z M 148,108 l 4,0 0,4 -4,0 z M 152,108 l 4,0 0,4 -4,0 z M 156,108 l 4,0 0,4 -4,0 z M 172,108 l 4,0 0,4 -4,0 z M 188,108 l 4,0 0,4 -4,0 z M 192,108 l 4,0 0,4 -4,0 z M 196,108 l 4,0 0,4 -4,0 z M 204,108 l 4,0 0,4 -4,0 z M 220,108 l 4,0 0,4 -4,0 z M 224,108 l 4,0 0,4 -4,0 z M 232,108 l 4,0 0,4 -4,0 z M 240,108 l 4,0 0,4 -4,0 z M 4,112 l 4,0 0,4 -4,0 z M 12,112 l 4,0 0,4 -4,0 z M 16,112 l 4,0 0,4 -4,0 z M 20,112 l 4,0 0,4 -4,0 z M 24,112 l 4,0 0,4 -4,0 z M 32,112 l 4,0 0,4 -4,0 z M 48,112 l 4,0 0,4 -4,0 z M 52,112 l 4,0 0,4 -4,0 z M 60,112 l 4,0 0,4 -4,0 z M 100,112 l 4,0 0,4 -4,0 z M 116,112 l 4,0 0,4 -4,0 z M 120,112 l 4,0 0,4 -4,0 z M 124,112 l 4,0 0,4 -4,0 z M 132,112 l 4,0 0,4 -4,0 z M 148,112 l 4,0 0,4 -4,0 z M 152,112 l 4,0 0,4 -4,0 z M 156,112 l 4,0 0,4 -4,0 z M 168,112 l 4,0 0,4 -4,0 z M 172,112 l 4,0 0,4 -4,0 z M 176,112 l 4,0 0,4 -4,0 z M 180,112 l 4,0 0,4 -4,0 z M 184,112 l 4,0 0,4 -4,0 z M 188,112 l 4,0 0,4 -4,0 z M 192,112 l 4,0 0,4 -4,0 z M 196,112 l 4,0 0,4 -4,0 z M 220,112 l 4,0 0,4 -4,0 z M 228,112 l 4,0 0,4 -4,0 z M 232,112 l 4,0 0,4 -4,0 z M 240,112 l 4,0 0,4 -4,0 z M 4,116 l 4,0 0,4 -4,0 z M 16,116 l 4,0 0,4 -4,0 z M 20,116 l 4,0 0,4 -4,0 z M 24,116 l 4,0 0,4 -4,0 z M 28,116 l 4,0 0,4 -4,0 z M 32,116 l 4,0 0,4 -4,0 z M 36,116 l 4,0 0,4 -4,0 z M 40,116 l 4,0 0,4 -4,0 z M 52,116 l 4,0 0,4 -4,0 z M 64,116 l 4,0 0,4 -4,0 z M 76,116 l 4,0 0,4 -4,0 z M 84,116 l 4,0 0,4 -4,0 z M 100,116 l 4,0 0,4 -4,0 z M 112,116 l 4,0 0,4 -4,0 z M 116,116 l 4,0 0,4 -4,0 z M 120,116 l 4,0 0,4 -4,0 z M 124,116 l 4,0 0,4 -4,0 z M 128,116 l 4,0 0,4 -4,0 z M 132,116 l 4,0 0,4 -4,0 z M 136,116 l 4,0 0,4 -4,0 z M 140,116 l 4,0 0,4 -4,0 z M 148,116 l 4,0 0,4 -4,0 z M 152,116 l 4,0 0,4 -4,0 z M 156,116 l 4,0 0,4 -4,0 z M 164,116 l 4,0 0,4 -4,0 z M 172,116 l 4,0 0,4 -4,0 z M 176,116 l 4,0 0,4 -4,0 z M 196,116 l 4,0 0,4 -4,0 z M 200,116 l 4,0 0,4 -4,0 z M 212,116 l 4,0 0,4 -4,0 z M 216,116 l 4,0 0,4 -4,0 z M 220,116 l 4,0 0,4 -4,0 z M 224,116 l 4,0 0,4 -4,0 z M 228,116 l 4,0 0,4 -4,0 z M 232,116 l 4,0 0,4 -4,0 z M 240,116 l 4,0 0,4 -4,0 z M 244,116 l 4,0 0,4 -4,0 z M 4,120 l 4,0 0,4 -4,0 z M 8,120 l 4,0 0,4 -4,0 z M 12,120 l 4,0 0,4 -4,0 z M 20,120 l 4,0 0,4 -4,0 z M 36,120 l 4,0 0,4 -4,0 z M 52,120 l 4,0 0,4 -4,0 z M 56,120 l 4,0 0,4 -4,0 z M 64,120 l 4,0 0,4 -4,0 z M 80,120 l 4,0 0,4 -4,0 z M 88,120 l 4,0 0,4 -4,0 z M 92,120 l 4,0 0,4 -4,0 z M 96,120 l 4,0 0,4 -4,0 z M 100,120 l 4,0 0,4 -4,0 z M 104,120 l 4,0 0,4 -4,0 z M 108,120 l 4,0 0,4 -4,0 z M 116,120 l 4,0 0,4 -4,0 z M 132,120 l 4,0 0,4 -4,0 z M 140,120 l 4,0 0,4 -4,0 z M 148,120 l 4,0 0,4 -4,0 z M 160,120 l 4,0 0,4 -4,0 z M 164,120 l 4,0 0,4 -4,0 z M 168,120 l 4,0 0,4 -4,0 z M 196,120 l 4,0 0,4 -4,0 z M 200,120 l 4,0 0,4 -4,0 z M 208,120 l 4,0 0,4 -4,0 z M 212,120 l 4,0 0,4 -4,0 z M 228,120 l 4,0 0,4 -4,0 z M 4,124 l 4,0 0,4 -4,0 z M 12,124 l 4,0 0,4 -4,0 z M 20,124 l 4,0 0,4 -4,0 z M 28,124 l 4,0 0,4 -4,0 z M 36,124 l 4,0 0,4 -4,0 z M 44,124 l 4,0 0,4 -4,0 z M 48,124 l 4,0 0,4 -4,0 z M 52,124 l 4,0 0,4 -4,0 z M 72,124 l 4,0 0,4 -4,0 z M 76,124 l 4,0 0,4 -4,0 z M 80,124 l 4,0 0,4 -4,0 z M 84,124 l 4,0 0,4 -4,0 z M 88,124 l 4,0 0,4 -4,0 z M 96,124 l 4,0 0,4 -4,0 z M 100,124 l 4,0 0,4 -4,0 z M 104,124 l 4,0 0,4 -4,0 z M 116,124 l 4,0 0,4 -4,0 z M 124,124 l 4,0 0,4 -4,0 z M 132,124 l 4,0 0,4 -4,0 z M 148,124 l 4,0 0,4 -4,0 z M 152,124 l 4,0 0,4 -4,0 z M 156,124 l 4,0 0,4 -4,0 z M 160,124 l 4,0 0,4 -4,0 z M 168,124 l 4,0 0,4 -4,0 z M 172,124 l 4,0 0,4 -4,0 z M 176,124 l 4,0 0,4 -4,0 z M 184,124 l 4,0 0,4 -4,0 z M 188,124 l 4,0 0,4 -4,0 z M 192,124 l 4,0 0,4 -4,0 z M 196,124 l 4,0 0,4 -4,0 z M 208,124 l 4,0 0,4 -4,0 z M 212,124 l 4,0 0,4 -4,0 z M 220,124 l 4,0 0,4 -4,0 z M 228,124 l 4,0 0,4 -4,0 z M 232,124 l 4,0 0,4 -4,0 z M 236,124 l 4,0 0,4 -4,0 z M 240,124 l 4,0 0,4 -4,0 z M 4,128 l 4,0 0,4 -4,0 z M 16,128 l 4,0 0,4 -4,0 z M 20,128 l 4,0 0,4 -4,0 z M 36,128 l 4,0 0,4 -4,0 z M 40,128 l 4,0 0,4 -4,0 z M 52,128 l 4,0 0,4 -4,0 z M 64,128 l 4,0 0,4 -4,0 z M 96,128 l 4,0 0,4 -4,0 z M 100,128 l 4,0 0,4 -4,0 z M 108,128 l 4,0 0,4 -4,0 z M 116,128 l 4,0 0,4 -4,0 z M 132,128 l 4,0 0,4 -4,0 z M 144,128 l 4,0 0,4 -4,0 z M 148,128 l 4,0 0,4 -4,0 z M 152,128 l 4,0 0,4 -4,0 z M 160,128 l 4,0 0,4 -4,0 z M 164,128 l 4,0 0,4 -4,0 z M 168,128 l 4,0 0,4 -4,0 z M 172,128 l 4,0 0,4 -4,0 z M 176,128 l 4,0 0,4 -4,0 z M 184,128 l 4,0 0,4 -4,0 z M 200,128 l 4,0 0,4 -4,0 z M 208,128 l 4,0 0,4 -4,0 z M 212,128 l 4,0 0,4 -4,0 z M 228,128 l 4,0 0,4 -4,0 z M 232,128 l 4,0 0,4 -4,0 z M 236,128 l 4,0 0,4 -4,0 z M 240,128 l 4,0 0,4 -4,0 z M 244,128 l 4,0 0,4 -4,0 z M 4,132 l 4,0 0,4 -4,0 z M 12,132 l 4,0 0,4 -4,0 z M 20,132 l 4,0 0,4 -4,0 z M 24,132 l 4,0 0,4 -4,0 z M 28,132 l 4,0 0,4 -4,0 z M 32,132 l 4,0 0,4 -4,0 z M 36,132 l 4,0 0,4 -4,0 z M 40,132 l 4,0 0,4 -4,0 z M 56,132 l 4,0 0,4 -4,0 z M 60,132 l 4,0 0,4 -4,0 z M 64,132 l 4,0 0,4 -4,0 z M 76,132 l 4,0 0,4 -4,0 z M 88,132 l 4,0 0,4 -4,0 z M 96,132 l 4,0 0,4 -4,0 z M 100,132 l 4,0 0,4 -4,0 z M 104,132 l 4,0 0,4 -4,0 z M 112,132 l 4,0 0,4 -4,0 z M 116,132 l 4,0 0,4 -4,0 z M 120,132 l 4,0 0,4 -4,0 z M 124,132 l 4,0 0,4 -4,0 z M 128,132 l 4,0 0,4 -4,0 z M 132,132 l 4,0 0,4 -4,0 z M 136,132 l 4,0 0,4 -4,0 z M 140,132 l 4,0 0,4 -4,0 z M 144,132 l 4,0 0,4 -4,0 z M 148,132 l 4,0 0,4 -4,0 z M 156,132 l 4,0 0,4 -4,0 z M 164,132 l 4,0 0,4 -4,0 z M 180,132 l 4,0 0,4 -4,0 z M 184,132 l 4,0 0,4 -4,0 z M 188,132 l 4,0 0,4 -4,0 z M 196,132 l 4,0 0,4 -4,0 z M 204,132 l 4,0 0,4 -4,0 z M 208,132 l 4,0 0,4 -4,0 z M 212,132 l 4,0 0,4 -4,0 z M 216,132 l 4,0 0,4 -4,0 z M 220,132 l 4,0 0,4 -4,0 z M 224,132 l 4,0 0,4 -4,0 z M 228,132 l 4,0 0,4 -4,0 z M 240,132 l 4,0 0,4 -4,0 z M 244,132 l 4,0 0,4 -4,0 z M 8,136 l 4,0 0,4 -4,0 z M 12,136 l 4,0 0,4 -4,0 z M 16,136 l 4,0 0,4 -4,0 z M 24,136 l 4,0 0,4 -4,0 z M 32,136 l 4,0 0,4 -4,0 z M 48,136 l 4,0 0,4 -4,0 z M 56,136 l 4,0 0,4 -4,0 z M 68,136 l 4,0 0,4 -4,0 z M 72,136 l 4,0 0,4 -4,0 z M 76,136 l 4,0 0,4 -4,0 z M 80,136 l 4,0 0,4 -4,0 z M 84,136 l 4,0 0,4 -4,0 z M 100,136 l 4,0 0,4 -4,0 z M 104,136 l 4,0 0,4 -4,0 z M 108,136 l 4,0 0,4 -4,0 z M 116,136 l 4,0 0,4 -4,0 z M 120,136 l 4,0 0,4 -4,0 z M 124,136 l 4,0 0,4 -4,0 z M 128,136 l 4,0 0,4 -4,0 z M 132,136 l 4,0 0,4 -4,0 z M 136,136 l 4,0 0,4 -4,0 z M 152,136 l 4,0 0,4 -4,0 z M 160,136 l 4,0 0,4 -4,0 z M 164,136 l 4,0 0,4 -4,0 z M 168,136 l 4,0 0,4 -4,0 z M 180,136 l 4,0 0,4 -4,0 z M 188,136 l 4,0 0,4 -4,0 z M 204,136 l 4,0 0,4 -4,0 z M 224,136 l 4,0 0,4 -4,0 z M 232,136 l 4,0 0,4 -4,0 z M 4,140 l 4,0 0,4 -4,0 z M 8,140 l 4,0 0,4 -4,0 z M 12,140 l 4,0 0,4 -4,0 z M 16,140 l 4,0 0,4 -4,0 z M 28,140 l 4,0 0,4 -4,0 z M 32,140 l 4,0 0,4 -4,0 z M 36,140 l 4,0 0,4 -4,0 z M 40,140 l 4,0 0,4 -4,0 z M 44,140 l 4,0 0,4 -4,0 z M 56,140 l 4,0 0,4 -4,0 z M 64,140 l 4,0 0,4 -4,0 z M 68,140 l 4,0 0,4 -4,0 z M 80,140 l 4,0 0,4 -4,0 z M 84,140 l 4,0 0,4 -4,0 z M 96,140 l 4,0 0,4 -4,0 z M 100,140 l 4,0 0,4 -4,0 z M 104,140 l 4,0 0,4 -4,0 z M 108,140 l 4,0 0,4 -4,0 z M 124,140 l 4,0 0,4 -4,0 z M 128,140 l 4,0 0,4 -4,0 z M 132,140 l 4,0 0,4 -4,0 z M 144,140 l 4,0 0,4 -4,0 z M 148,140 l 4,0 0,4 -4,0 z M 168,140 l 4,0 0,4 -4,0 z M 176,140 l 4,0 0,4 -4,0 z M 188,140 l 4,0 0,4 -4,0 z M 192,140 l 4,0 0,4 -4,0 z M 208,140 l 4,0 0,4 -4,0 z M 216,140 l 4,0 0,4 -4,0 z M 220,140 l 4,0 0,4 -4,0 z M 228,140 l 4,0 0,4 -4,0 z M 232,140 l 4,0 0,4 -4,0 z M 240,140 l 4,0 0,4 -4,0 z M 4,144 l 4,0 0,4 -4,0 z M 8,144 l 4,0 0,4 -4,0 z M 12,144 l 4,0 0,4 -4,0 z M 16,144 l 4,0 0,4 -4,0 z M 24,144 l 4,0 0,4 -4,0 z M 32,144 l 4,0 0,4 -4,0 z M 36,144 l 4,0 0,4 -4,0 z M 48,144 l 4,0 0,4 -4,0 z M 52,144 l 4,0 0,4 -4,0 z M 56,144 l 4,0 0,4 -4,0 z M 60,144 l 4,0 0,4 -4,0 z M 68,144 l 4,0 0,4 -4,0 z M 72,144 l 4,0 0,4 -4,0 z M 76,144 l 4,0 0,4 -4,0 z M 88,144 l 4,0 0,4 -4,0 z M 100,144 l 4,0 0,4 -4,0 z M 120,144 l 4,0 0,4 -4,0 z M 124,144 l 4,0 0,4 -4,0 z M 136,144 l 4,0 0,4 -4,0 z M 144,144 l 4,0 0,4 -4,0 z M 148,144 l 4,0 0,4 -4,0 z M 160,144 l 4,0 0,4 -4,0 z M 164,144 l 4,0 0,4 -4,0 z M 168,144 l 4,0 0,4 -4,0 z M 200,144 l 4,0 0,4 -4,0 z M 204,144 l 4,0 0,4 -4,0 z M 208,144 l 4,0 0,4 -4,0 z M 216,144 l 4,0 0,4 -4,0 z M 220,144 l 4,0 0,4 -4,0 z M 232,144 l 4,0 0,4 -4,0 z M 4,148 l 4,0 0,4 -4,0 z M 24,148 l 4,0 0,4 -4,0 z M 28,148 l 4,0 0,4 -4,0 z M 40,148 l 4,0 0,4 -4,0 z M 48,148 l 4,0 0,4 -4,0 z M 52,148 l 4,0 0,4 -4,0 z M 60,148 l 4,0 0,4 -4,0 z M 68,148 l 4,0 0,4 -4,0 z M 72,148 l 4,0 0,4 -4,0 z M 76,148 l 4,0 0,4 -4,0 z M 80,148 l 4,0 0,4 -4,0 z M 88,148 l 4,0 0,4 -4,0 z M 92,148 l 4,0 0,4 -4,0 z M 112,148 l 4,0 0,4 -4,0 z M 124,148 l 4,0 0,4 -4,0 z M 144,148 l 4,0 0,4 -4,0 z M 160,148 l 4,0 0,4 -4,0 z M 164,148 l 4,0 0,4 -4,0 z M 168,148 l 4,0 0,4 -4,0 z M 176,148 l 4,0 0,4 -4,0 z M 184,148 l 4,0 0,4 -4,0 z M 192,148 l 4,0 0,4 -4,0 z M 196,148 l 4,0 0,4 -4,0 z M 200,148 l 4,0 0,4 -4,0 z M 204,148 l 4,0 0,4 -4,0 z M 208,148 l 4,0 0,4 -4,0 z M 216,148 l 4,0 0,4 -4,0 z M 220,148 l 4,0 0,4 -4,0 z M 224,148 l 4,0 0,4 -4,0 z M 228,148 l 4,0 0,4 -4,0 z M 240,148 l 4,0 0,4 -4,0 z M 244,148 l 4,0 0,4 -4,0 z M 4,152 l 4,0 0,4 -4,0 z M 12,152 l 4,0 0,4 -4,0 z M 16,152 l 4,0 0,4 -4,0 z M 20,152 l 4,0 0,4 -4,0 z M 36,152 l 4,0 0,4 -4,0 z M 44,152 l 4,0 0,4 -4,0 z M 52,152 l 4,0 0,4 -4,0 z M 56,152 l 4,0 0,4 -4,0 z M 60,152 l 4,0 0,4 -4,0 z M 64,152 l 4,0 0,4 -4,0 z M 80,152 l 4,0 0,4 -4,0 z M 88,152 l 4,0 0,4 -4,0 z M 96,152 l 4,0 0,4 -4,0 z M 100,152 l 4,0 0,4 -4,0 z M 104,152 l 4,0 0,4 -4,0 z M 108,152 l 4,0 0,4 -4,0 z M 120,152 l 4,0 0,4 -4,0 z M 124,152 l 4,0 0,4 -4,0 z M 132,152 l 4,0 0,4 -4,0 z M 136,152 l 4,0 0,4 -4,0 z M 152,152 l 4,0 0,4 -4,0 z M 156,152 l 4,0 0,4 -4,0 z M 160,152 l 4,0 0,4 -4,0 z M 164,152 l 4,0 0,4 -4,0 z M 172,152 l 4,0 0,4 -4,0 z M 184,152 l 4,0 0,4 -4,0 z M 188,152 l 4,0 0,4 -4,0 z M 200,152 l 4,0 0,4 -4,0 z M 232,152 l 4,0 0,4 -4,0 z M 244,152 l 4,0 0,4 -4,0 z M 4,156 l 4,0 0,4 -4,0 z M 8,156 l 4,0 0,4 -4,0 z M 16,156 l 4,0 0,4 -4,0 z M 28,156 l 4,0 0,4 -4,0 z M 36,156 l 4,0 0,4 -4,0 z M 44,156 l 4,0 0,4 -4,0 z M 52,156 l 4,0 0,4 -4,0 z M 60,156 l 4,0 0,4 -4,0 z M 68,156 l 4,0 0,4 -4,0 z M 76,156 l 4,0 0,4 -4,0 z M 100,156 l 4,0 0,4 -4,0 z M 104,156 l 4,0 0,4 -4,0 z M 108,156 l 4,0 0,4 -4,0 z M 120,156 l 4,0 0,4 -4,0 z M 124,156 l 4,0 0,4 -4,0 z M 148,156 l 4,0 0,4 -4,0 z M 160,156 l 4,0 0,4 -4,0 z M 172,156 l 4,0 0,4 -4,0 z M 200,156 l 4,0 0,4 -4,0 z M 208,156 l 4,0 0,4 -4,0 z M 216,156 l 4,0 0,4 -4,0 z M 228,156 l 4,0 0,4 -4,0 z M 236,156 l 4,0 0,4 -4,0 z M 4,160 l 4,0 0,4 -4,0 z M 8,160 l 4,0 0,4 -4,0 z M 12,160 l 4,0 0,4 -4,0 z M 16,160 l 4,0 0,4 -4,0 z M 24,160 l 4,0 0,4 -4,0 z M 44,160 l 4,0 0,4 -4,0 z M 64,160 l 4,0 0,4 -4,0 z M 72,160 l 4,0 0,4 -4,0 z M 76,160 l 4,0 0,4 -4,0 z M 80,160 l 4,0 0,4 -4,0 z M 88,160 l 4,0 0,4 -4,0 z M 96,160 l 4,0 0,4 -4,0 z M 100,160 l 4,0 0,4 -4,0 z M 108,160 l 4,0 0,4 -4,0 z M 116,160 l 4,0 0,4 -4,0 z M 120,160 l 4,0 0,4 -4,0 z M 132,160 l 4,0 0,4 -4,0 z M 144,160 l 4,0 0,4 -4,0 z M 168,160 l 4,0 0,4 -4,0 z M 172,160 l 4,0 0,4 -4,0 z M 180,160 l 4,0 0,4 -4,0 z M 196,160 l 4,0 0,4 -4,0 z M 200,160 l 4,0 0,4 -4,0 z M 204,160 l 4,0 0,4 -4,0 z M 212,160 l 4,0 0,4 -4,0 z M 216,160 l 4,0 0,4 -4,0 z M 224,160 l 4,0 0,4 -4,0 z M 240,160 l 4,0 0,4 -4,0 z M 4,164 l 4,0 0,4 -4,0 z M 8,164 l 4,0 0,4 -4,0 z M 16,164 l 4,0 0,4 -4,0 z M 24,164 l 4,0 0,4 -4,0 z M 28,164 l 4,0 0,4 -4,0 z M 32,164 l 4,0 0,4 -4,0 z M 36,164 l 4,0 0,4 -4,0 z M 48,164 l 4,0 0,4 -4,0 z M 56,164 l 4,0 0,4 -4,0 z M 64,164 l 4,0 0,4 -4,0 z M 68,164 l 4,0 0,4 -4,0 z M 76,164 l 4,0 0,4 -4,0 z M 92,164 l 4,0 0,4 -4,0 z M 104,164 l 4,0 0,4 -4,0 z M 108,164 l 4,0 0,4 -4,0 z M 112,164 l 4,0 0,4 -4,0 z M 148,164 l 4,0 0,4 -4,0 z M 152,164 l 4,0 0,4 -4,0 z M 156,164 l 4,0 0,4 -4,0 z M 160,164 l 4,0 0,4 -4,0 z M 168,164 l 4,0 0,4 -4,0 z M 176,164 l 4,0 0,4 -4,0 z M 180,164 l 4,0 0,4 -4,0 z M 184,164 l 4,0 0,4 -4,0 z M 188,164 l 4,0 0,4 -4,0 z M 196,164 l 4,0 0,4 -4,0 z M 200,164 l 4,0 0,4 -4,0 z M 208,164 l 4,0 0,4 -4,0 z M 220,164 l 4,0 0,4 -4,0 z M 224,164 l 4,0 0,4 -4,0 z M 236,164 l 4,0 0,4 -4,0 z M 244,164 l 4,0 0,4 -4,0 z M 8,168 l 4,0 0,4 -4,0 z M 16,168 l 4,0 0,4 -4,0 z M 20,168 l 4,0 0,4 -4,0 z M 24,168 l 4,0 0,4 -4,0 z M 32,168 l 4,0 0,4 -4,0 z M 40,168 l 4,0 0,4 -4,0 z M 48,168 l 4,0 0,4 -4,0 z M 52,168 l 4,0 0,4 -4,0 z M 56,168 l 4,0 0,4 -4,0 z M 60,168 l 4,0 0,4 -4,0 z M 64,168 l 4,0 0,4 -4,0 z M 68,168 l 4,0 0,4 -4,0 z M 72,168 l 4,0 0,4 -4,0 z M 76,168 l 4,0 0,4 -4,0 z M 80,168 l 4,0 0,4 -4,0 z M 84,168 l 4,0 0,4 -4,0 z M 88,168 l 4,0 0,4 -4,0 z M 92,168 l 4,0 0,4 -4,0 z M 128,168 l 4,0 0,4 -4,0 z M 144,168 l 4,0 0,4 -4,0 z M 156,168 l 4,0 0,4 -4,0 z M 160,168 l 4,0 0,4 -4,0 z M 168,168 l 4,0 0,4 -4,0 z M 172,168 l 4,0 0,4 -4,0 z M 188,168 l 4,0 0,4 -4,0 z M 192,168 l 4,0 0,4 -4,0 z M 204,168 l 4,0 0,4 -4,0 z M 212,168 l 4,0 0,4 -4,0 z M 216,168 l 4,0 0,4 -4,0 z M 224,168 l 4,0 0,4 -4,0 z M 232,168 l 4,0 0,4 -4,0 z M 12,172 l 4,0 0,4 -4,0 z M 28,172 l 4,0 0,4 -4,0 z M 32,172 l 4,0 0,4 -4,0 z M 40,172 l 4,0 0,4 -4,0 z M 44,172 l 4,0 0,4 -4,0 z M 52,172 l 4,0 0,4 -4,0 z M 56,172 l 4,0 0,4 -4,0 z M 68,172 l 4,0 0,4 -4,0 z M 72,172 l 4,0 0,4 -4,0 z M 84,172 l 4,0 0,4 -4,0 z M 88,172 l 4,0 0,4 -4,0 z M 92,172 l 4,0 0,4 -4,0 z M 96,172 l 4,0 0,4 -4,0 z M 100,172 l 4,0 0,4 -4,0 z M 108,172 l 4,0 0,4 -4,0 z M 116,172 l 4,0 0,4 -4,0 z M 124,172 l 4,0 0,4 -4,0 z M 136,172 l 4,0 0,4 -4,0 z M 140,172 l 4,0 0,4 -4,0 z M 144,172 l 4,0 0,4 -4,0 z M 148,172 l 4,0 0,4 -4,0 z M 152,172 l 4,0 0,4 -4,0 z M 156,172 l 4,0 0,4 -4,0 z M 172,172 l 4,0 0,4 -4,0 z M 176,172 l 4,0 0,4 -4,0 z M 192,172 l 4,0 0,4 -4,0 z M 196,172 l 4,0 0,4 -4,0 z M 200,172 l 4,0 0,4 -4,0 z M 204,172 l 4,0 0,4 -4,0 z M 212,172 l 4,0 0,4 -4,0 z M 224,172 l 4,0 0,4 -4,0 z M 236,172 l 4,0 0,4 -4,0 z M 240,172 l 4,0 0,4 -4,0 z M 244,172 l 4,0 0,4 -4,0 z M 12,176 l 4,0 0,4 -4,0 z M 16,176 l 4,0 0,4 -4,0 z M 20,176 l 4,0 0,4 -4,0 z M 36,176 l 4,0 0,4 -4,0 z M 40,176 l 4,0 0,4 -4,0 z M 44,176 l 4,0 0,4 -4,0 z M 52,176 l 4,0 0,4 -4,0 z M 56,176 l 4,0 0,4 -4,0 z M 60,176 l 4,0 0,4 -4,0 z M 72,176 l 4,0 0,4 -4,0 z M 76,176 l 4,0 0,4 -4,0 z M 80,176 l 4,0 0,4 -4,0 z M 84,176 l 4,0 0,4 -4,0 z M 96,176 l 4,0 0,4 -4,0 z M 100,176 l 4,0 0,4 -4,0 z M 108,176 l 4,0 0,4 -4,0 z M 112,176 l 4,0 0,4 -4,0 z M 116,176 l 4,0 0,4 -4,0 z M 128,176 l 4,0 0,4 -4,0 z M 140,176 l 4,0 0,4 -4,0 z M 148,176 l 4,0 0,4 -4,0 z M 156,176 l 4,0 0,4 -4,0 z M 160,176 l 4,0 0,4 -4,0 z M 168,176 l 4,0 0,4 -4,0 z M 176,176 l 4,0 0,4 -4,0 z M 180,176 l 4,0 0,4 -4,0 z M 184,176 l 4,0 0,4 -4,0 z M 192,176 l 4,0 0,4 -4,0 z M 200,176 l 4,0 0,4 -4,0 z M 204,176 l 4,0 0,4 -4,0 z M 208,176 l 4,0 0,4 -4,0 z M 212,176 l 4,0 0,4 -4,0 z M 232,176 l 4,0 0,4 -4,0 z M 240,176 l 4,0 0,4 -4,0 z M 244,176 l 4,0 0,4 -4,0 z M 8,180 l 4,0 0,4 -4,0 z M 28,180 l 4,0 0,4 -4,0 z M 32,180 l 4,0 0,4 -4,0 z M 36,180 l 4,0 0,4 -4,0 z M 56,180 l 4,0 0,4 -4,0 z M 64,180 l 4,0 0,4 -4,0 z M 68,180 l 4,0 0,4 -4,0 z M 80,180 l 4,0 0,4 -4,0 z M 112,180 l 4,0 0,4 -4,0 z M 116,180 l 4,0 0,4 -4,0 z M 132,180 l 4,0 0,4 -4,0 z M 136,180 l 4,0 0,4 -4,0 z M 140,180 l 4,0 0,4 -4,0 z M 148,180 l 4,0 0,4 -4,0 z M 152,180 l 4,0 0,4 -4,0 z M 156,180 l 4,0 0,4 -4,0 z M 164,180 l 4,0 0,4 -4,0 z M 176,180 l 4,0 0,4 -4,0 z M 188,180 l 4,0 0,4 -4,0 z M 204,180 l 4,0 0,4 -4,0 z M 208,180 l 4,0 0,4 -4,0 z M 212,180 l 4,0 0,4 -4,0 z M 220,180 l 4,0 0,4 -4,0 z M 224,180 l 4,0 0,4 -4,0 z M 228,180 l 4,0 0,4 -4,0 z M 232,180 l 4,0 0,4 -4,0 z M 244,180 l 4,0 0,4 -4,0 z M 4,184 l 4,0 0,4 -4,0 z M 8,184 l 4,0 0,4 -4,0 z M 12,184 l 4,0 0,4 -4,0 z M 16,184 l 4,0 0,4 -4,0 z M 20,184 l 4,0 0,4 -4,0 z M 32,184 l 4,0 0,4 -4,0 z M 36,184 l 4,0 0,4 -4,0 z M 40,184 l 4,0 0,4 -4,0 z M 44,184 l 4,0 0,4 -4,0 z M 52,184 l 4,0 0,4 -4,0 z M 56,184 l 4,0 0,4 -4,0 z M 64,184 l 4,0 0,4 -4,0 z M 72,184 l 4,0 0,4 -4,0 z M 76,184 l 4,0 0,4 -4,0 z M 80,184 l 4,0 0,4 -4,0 z M 92,184 l 4,0 0,4 -4,0 z M 104,184 l 4,0 0,4 -4,0 z M 112,184 l 4,0 0,4 -4,0 z M 120,184 l 4,0 0,4 -4,0 z M 124,184 l 4,0 0,4 -4,0 z M 128,184 l 4,0 0,4 -4,0 z M 140,184 l 4,0 0,4 -4,0 z M 148,184 l 4,0 0,4 -4,0 z M 156,184 l 4,0 0,4 -4,0 z M 160,184 l 4,0 0,4 -4,0 z M 168,184 l 4,0 0,4 -4,0 z M 176,184 l 4,0 0,4 -4,0 z M 180,184 l 4,0 0,4 -4,0 z M 184,184 l 4,0 0,4 -4,0 z M 196,184 l 4,0 0,4 -4,0 z M 200,184 l 4,0 0,4 -4,0 z M 204,184 l 4,0 0,4 -4,0 z M 208,184 l 4,0 0,4 -4,0 z M 212,184 l 4,0 0,4 -4,0 z M 220,184 l 4,0 0,4 -4,0 z M 224,184 l 4,0 0,4 -4,0 z M 244,184 l 4,0 0,4 -4,0 z M 12,188 l 4,0 0,4 -4,0 z M 16,188 l 4,0 0,4 -4,0 z M 20,188 l 4,0 0,4 -4,0 z M 28,188 l 4,0 0,4 -4,0 z M 40,188 l 4,0 0,4 -4,0 z M 48,188 l 4,0 0,4 -4,0 z M 56,188 l 4,0 0,4 -4,0 z M 64,188 l 4,0 0,4 -4,0 z M 68,188 l 4,0 0,4 -4,0 z M 72,188 l 4,0 0,4 -4,0 z M 76,188 l 4,0 0,4 -4,0 z M 92,188 l 4,0 0,4 -4,0 z M 100,188 l 4,0 0,4 -4,0 z M 104,188 l 4,0 0,4 -4,0 z M 112,188 l 4,0 0,4 -4,0 z M 116,188 l 4,0 0,4 -4,0 z M 120,188 l 4,0 0,4 -4,0 z M 124,188 l 4,0 0,4 -4,0 z M 128,188 l 4,0 0,4 -4,0 z M 148,188 l 4,0 0,4 -4,0 z M 156,188 l 4,0 0,4 -4,0 z M 160,188 l 4,0 0,4 -4,0 z M 164,188 l 4,0 0,4 -4,0 z M 168,188 l 4,0 0,4 -4,0 z M 172,188 l 4,0 0,4 -4,0 z M 184,188 l 4,0 0,4 -4,0 z M 188,188 l 4,0 0,4 -4,0 z M 192,188 l 4,0 0,4 -4,0 z M 196,188 l 4,0 0,4 -4,0 z M 208,188 l 4,0 0,4 -4,0 z M 212,188 l 4,0 0,4 -4,0 z M 220,188 l 4,0 0,4 -4,0 z M 228,188 l 4,0 0,4 -4,0 z M 232,188 l 4,0 0,4 -4,0 z M 236,188 l 4,0 0,4 -4,0 z M 16,192 l 4,0 0,4 -4,0 z M 36,192 l 4,0 0,4 -4,0 z M 40,192 l 4,0 0,4 -4,0 z M 44,192 l 4,0 0,4 -4,0 z M 52,192 l 4,0 0,4 -4,0 z M 60,192 l 4,0 0,4 -4,0 z M 64,192 l 4,0 0,4 -4,0 z M 68,192 l 4,0 0,4 -4,0 z M 72,192 l 4,0 0,4 -4,0 z M 88,192 l 4,0 0,4 -4,0 z M 92,192 l 4,0 0,4 -4,0 z M 100,192 l 4,0 0,4 -4,0 z M 108,192 l 4,0 0,4 -4,0 z M 112,192 l 4,0 0,4 -4,0 z M 124,192 l 4,0 0,4 -4,0 z M 144,192 l 4,0 0,4 -4,0 z M 148,192 l 4,0 0,4 -4,0 z M 152,192 l 4,0 0,4 -4,0 z M 156,192 l 4,0 0,4 -4,0 z M 172,192 l 4,0 0,4 -4,0 z M 180,192 l 4,0 0,4 -4,0 z M 184,192 l 4,0 0,4 -4,0 z M 200,192 l 4,0 0,4 -4,0 z M 208,192 l 4,0 0,4 -4,0 z M 212,192 l 4,0 0,4 -4,0 z M 216,192 l 4,0 0,4 -4,0 z M 220,192 l 4,0 0,4 -4,0 z M 224,192 l 4,0 0,4 -4,0 z M 228,192 l 4,0 0,4 -4,0 z M 236,192 l 4,0 0,4 -4,0 z M 16,196 l 4,0 0,4 -4,0 z M 20,196 l 4,0 0,4 -4,0 z M 28,196 l 4,0 0,4 -4,0 z M 32,196 l 4,0 0,4 -4,0 z M 36,196 l 4,0 0,4 -4,0 z M 44,196 l 4,0 0,4 -4,0 z M 56,196 l 4,0 0,4 -4,0 z M 76,196 l 4,0 0,4 -4,0 z M 92,196 l 4,0 0,4 -4,0 z M 100,196 l 4,0 0,4 -4,0 z M 104,196 l 4,0 0,4 -4,0 z M 112,196 l 4,0 0,4 -4,0 z M 120,196 l 4,0 0,4 -4,0 z M 128,196 l 4,0 0,4 -4,0 z M 140,196 l 4,0 0,4 -4,0 z M 160,196 l 4,0 0,4 -4,0 z M 176,196 l 4,0 0,4 -4,0 z M 180,196 l 4,0 0,4 -4,0 z M 184,196 l 4,0 0,4 -4,0 z M 192,196 l 4,0 0,4 -4,0 z M 196,196 l 4,0 0,4 -4,0 z M 200,196 l 4,0 0,4 -4,0 z M 204,196 l 4,0 0,4 -4,0 z M 220,196 l 4,0 0,4 -4,0 z M 224,196 l 4,0 0,4 -4,0 z M 232,196 l 4,0 0,4 -4,0 z M 236,196 l 4,0 0,4 -4,0 z M 240,196 l 4,0 0,4 -4,0 z M 244,196 l 4,0 0,4 -4,0 z M 4,200 l 4,0 0,4 -4,0 z M 8,200 l 4,0 0,4 -4,0 z M 12,200 l 4,0 0,4 -4,0 z M 16,200 l 4,0 0,4 -4,0 z M 36,200 l 4,0 0,4 -4,0 z M 44,200 l 4,0 0,4 -4,0 z M 52,200 l 4,0 0,4 -4,0 z M 64,200 l 4,0 0,4 -4,0 z M 72,200 l 4,0 0,4 -4,0 z M 88,200 l 4,0 0,4 -4,0 z M 96,200 l 4,0 0,4 -4,0 z M 112,200 l 4,0 0,4 -4,0 z M 124,200 l 4,0 0,4 -4,0 z M 136,200 l 4,0 0,4 -4,0 z M 160,200 l 4,0 0,4 -4,0 z M 164,200 l 4,0 0,4 -4,0 z M 168,200 l 4,0 0,4 -4,0 z M 180,200 l 4,0 0,4 -4,0 z M 184,200 l 4,0 0,4 -4,0 z M 188,200 l 4,0 0,4 -4,0 z M 196,200 l 4,0 0,4 -4,0 z M 200,200 l 4,0 0,4 -4,0 z M 212,200 l 4,0 0,4 -4,0 z M 216,200 l 4,0 0,4 -4,0 z M 224,200 l 4,0 0,4 -4,0 z M 232,200 l 4,0 0,4 -4,0 z M 236,200 l 4,0 0,4 -4,0 z M 240,200 l 4,0 0,4 -4,0 z M 244,200 l 4,0 0,4 -4,0 z M 12,204 l 4,0 0,4 -4,0 z M 16,204 l 4,0 0,4 -4,0 z M 20,204 l 4,0 0,4 -4,0 z M 24,204 l 4,0 0,4 -4,0 z M 28,204 l 4,0 0,4 -4,0 z M 36,204 l 4,0 0,4 -4,0 z M 40,204 l 4,0 0,4 -4,0 z M 44,204 l 4,0 0,4 -4,0 z M 48,204 l 4,0 0,4 -4,0 z M 56,204 l 4,0 0,4 -4,0 z M 72,204 l 4,0 0,4 -4,0 z M 76,204 l 4,0 0,4 -4,0 z M 108,204 l 4,0 0,4 -4,0 z M 116,204 l 4,0 0,4 -4,0 z M 120,204 l 4,0 0,4 -4,0 z M 140,204 l 4,0 0,4 -4,0 z M 144,204 l 4,0 0,4 -4,0 z M 148,204 l 4,0 0,4 -4,0 z M 152,204 l 4,0 0,4 -4,0 z M 156,204 l 4,0 0,4 -4,0 z M 160,204 l 4,0 0,4 -4,0 z M 164,204 l 4,0 0,4 -4,0 z M 168,204 l 4,0 0,4 -4,0 z M 176,204 l 4,0 0,4 -4,0 z M 184,204 l 4,0 0,4 -4,0 z M 188,204 l 4,0 0,4 -4,0 z M 220,204 l 4,0 0,4 -4,0 z M 224,204 l 4,0 0,4 -4,0 z M 228,204 l 4,0 0,4 -4,0 z M 236,204 l 4,0 0,4 -4,0 z M 244,204 l 4,0 0,4 -4,0 z M 4,208 l 4,0 0,4 -4,0 z M 8,208 l 4,0 0,4 -4,0 z M 12,208 l 4,0 0,4 -4,0 z M 20,208 l 4,0 0,4 -4,0 z M 32,208 l 4,0 0,4 -4,0 z M 36,208 l 4,0 0,4 -4,0 z M 40,208 l 4,0 0,4 -4,0 z M 44,208 l 4,0 0,4 -4,0 z M 52,208 l 4,0 0,4 -4,0 z M 56,208 l 4,0 0,4 -4,0 z M 60,208 l 4,0 0,4 -4,0 z M 64,208 l 4,0 0,4 -4,0 z M 72,208 l 4,0 0,4 -4,0 z M 76,208 l 4,0 0,4 -4,0 z M 88,208 l 4,0 0,4 -4,0 z M 96,208 l 4,0 0,4 -4,0 z M 104,208 l 4,0 0,4 -4,0 z M 108,208 l 4,0 0,4 -4,0 z M 112,208 l 4,0 0,4 -4,0 z M 128,208 l 4,0 0,4 -4,0 z M 140,208 l 4,0 0,4 -4,0 z M 148,208 l 4,0 0,4 -4,0 z M 152,208 l 4,0 0,4 -4,0 z M 156,208 l 4,0 0,4 -4,0 z M 188,208 l 4,0 0,4 -4,0 z M 192,208 l 4,0 0,4 -4,0 z M 220,208 l 4,0 0,4 -4,0 z M 228,208 l 4,0 0,4 -4,0 z M 232,208 l 4,0 0,4 -4,0 z M 4,212 l 4,0 0,4 -4,0 z M 8,212 l 4,0 0,4 -4,0 z M 12,212 l 4,0 0,4 -4,0 z M 16,212 l 4,0 0,4 -4,0 z M 28,212 l 4,0 0,4 -4,0 z M 32,212 l 4,0 0,4 -4,0 z M 36,212 l 4,0 0,4 -4,0 z M 44,212 l 4,0 0,4 -4,0 z M 52,212 l 4,0 0,4 -4,0 z M 56,212 l 4,0 0,4 -4,0 z M 64,212 l 4,0 0,4 -4,0 z M 68,212 l 4,0 0,4 -4,0 z M 72,212 l 4,0 0,4 -4,0 z M 76,212 l 4,0 0,4 -4,0 z M 80,212 l 4,0 0,4 -4,0 z M 92,212 l 4,0 0,4 -4,0 z M 104,212 l 4,0 0,4 -4,0 z M 116,212 l 4,0 0,4 -4,0 z M 120,212 l 4,0 0,4 -4,0 z M 124,212 l 4,0 0,4 -4,0 z M 128,212 l 4,0 0,4 -4,0 z M 132,212 l 4,0 0,4 -4,0 z M 136,212 l 4,0 0,4 -4,0 z M 140,212 l 4,0 0,4 -4,0 z M 144,212 l 4,0 0,4 -4,0 z M 156,212 l 4,0 0,4 -4,0 z M 160,212 l 4,0 0,4 -4,0 z M 196,212 l 4,0 0,4 -4,0 z M 204,212 l 4,0 0,4 -4,0 z M 212,212 l 4,0 0,4 -4,0 z M 216,212 l 4,0 0,4 -4,0 z M 220,212 l 4,0 0,4 -4,0 z M 224,212 l 4,0 0,4 -4,0 z M 228,212 l 4,0 0,4 -4,0 z M 236,212 l 4,0 0,4 -4,0 z M 240,212 l 4,0 0,4 -4,0 z M 244,212 l 4,0 0,4 -4,0 z M 36,216 l 4,0 0,4 -4,0 z M 40,216 l 4,0 0,4 -4,0 z M 48,216 l 4,0 0,4 -4,0 z M 52,216 l 4,0 0,4 -4,0 z M 56,216 l 4,0 0,4 -4,0 z M 72,216 l 4,0 0,4 -4,0 z M 80,216 l 4,0 0,4 -4,0 z M 84,216 l 4,0 0,4 -4,0 z M 92,216 l 4,0 0,4 -4,0 z M 96,216 l 4,0 0,4 -4,0 z M 100,216 l 4,0 0,4 -4,0 z M 116,216 l 4,0 0,4 -4,0 z M 132,216 l 4,0 0,4 -4,0 z M 140,216 l 4,0 0,4 -4,0 z M 152,216 l 4,0 0,4 -4,0 z M 156,216 l 4,0 0,4 -4,0 z M 160,216 l 4,0 0,4 -4,0 z M 172,216 l 4,0 0,4 -4,0 z M 184,216 l 4,0 0,4 -4,0 z M 188,216 l 4,0 0,4 -4,0 z M 192,216 l 4,0 0,4 -4,0 z M 200,216 l 4,0 0,4 -4,0 z M 208,216 l 4,0 0,4 -4,0 z M 212,216 l 4,0 0,4 -4,0 z M 228,216 l 4,0 0,4 -4,0 z M 232,216 l 4,0 0,4 -4,0 z M 236,216 l 4,0 0,4 -4,0 z M 244,216 l 4,0 0,4 -4,0 z M 4,220 l 4,0 0,4 -4,0 z M 8,220 l 4,0 0,4 -4,0 z M 12,220 l 4,0 0,4 -4,0 z M 16,220 l 4,0 0,4 -4,0 z M 20,220 l 4,0 0,4 -4,0 z M 24,220 l 4,0 0,4 -4,0 z M 28,220 l 4,0 0,4 -4,0 z M 36,220 l 4,0 0,4 -4,0 z M 40,220 l 4,0 0,4 -4,0 z M 52,220 l 4,0 0,4 -4,0 z M 68,220 l 4,0 0,4 -4,0 z M 72,220 l 4,0 0,4 -4,0 z M 92,220 l 4,0 0,4 -4,0 z M 96,220 l 4,0 0,4 -4,0 z M 116,220 l 4,0 0,4 -4,0 z M 124,220 l 4,0 0,4 -4,0 z M 132,220 l 4,0 0,4 -4,0 z M 136,220 l 4,0 0,4 -4,0 z M 152,220 l 4,0 0,4 -4,0 z M 160,220 l 4,0 0,4 -4,0 z M 180,220 l 4,0 0,4 -4,0 z M 184,220 l 4,0 0,4 -4,0 z M 192,220 l 4,0 0,4 -4,0 z M 196,220 l 4,0 0,4 -4,0 z M 208,220 l 4,0 0,4 -4,0 z M 212,220 l 4,0 0,4 -4,0 z M 220,220 l 4,0 0,4 -4,0 z M 228,220 l 4,0 0,4 -4,0 z M 232,220 l 4,0 0,4 -4,0 z M 236,220 l 4,0 0,4 -4,0 z M 4,224 l 4,0 0,4 -4,0 z M 28,224 l 4,0 0,4 -4,0 z M 44,224 l 4,0 0,4 -4,0 z M 52,224 l 4,0 0,4 -4,0 z M 60,224 l 4,0 0,4 -4,0 z M 64,224 l 4,0 0,4 -4,0 z M 80,224 l 4,0 0,4 -4,0 z M 88,224 l 4,0 0,4 -4,0 z M 96,224 l 4,0 0,4 -4,0 z M 104,224 l 4,0 0,4 -4,0 z M 116,224 l 4,0 0,4 -4,0 z M 132,224 l 4,0 0,4 -4,0 z M 144,224 l 4,0 0,4 -4,0 z M 148,224 l 4,0 0,4 -4,0 z M 152,224 l 4,0 0,4 -4,0 z M 160,224 l 4,0 0,4 -4,0 z M 164,224 l 4,0 0,4 -4,0 z M 168,224 l 4,0 0,4 -4,0 z M 180,224 l 4,0 0,4 -4,0 z M 196,224 l 4,0 0,4 -4,0 z M 200,224 l 4,0 0,4 -4,0 z M 208,224 l 4,0 0,4 -4,0 z M 212,224 l 4,0 0,4 -4,0 z M 228,224 l 4,0 0,4 -4,0 z M 236,224 l 4,0 0,4 -4,0 z M 4,228 l 4,0 0,4 -4,0 z M 12,228 l 4,0 0,4 -4,0 z M 16,228 l 4,0 0,4 -4,0 z M 20,228 l 4,0 0,4 -4,0 z M 28,228 l 4,0 0,4 -4,0 z M 36,228 l 4,0 0,4 -4,0 z M 44,228 l 4,0 0,4 -4,0 z M 52,228 l 4,0 0,4 -4,0 z M 56,228 l 4,0 0,4 -4,0 z M 64,228 l 4,0 0,4 -4,0 z M 68,228 l 4,0 0,4 -4,0 z M 72,228 l 4,0 0,4 -4,0 z M 80,228 l 4,0 0,4 -4,0 z M 112,228 l 4,0 0,4 -4,0 z M 116,228 l 4,0 0,4 -4,0 z M 120,228 l 4,0 0,4 -4,0 z M 124,228 l 4,0 0,4 -4,0 z M 128,228 l 4,0 0,4 -4,0 z M 132,228 l 4,0 0,4 -4,0 z M 136,228 l 4,0 0,4 -4,0 z M 140,228 l 4,0 0,4 -4,0 z M 148,228 l 4,0 0,4 -4,0 z M 152,228 l 4,0 0,4 -4,0 z M 160,228 l 4,0 0,4 -4,0 z M 164,228 l 4,0 0,4 -4,0 z M 172,228 l 4,0 0,4 -4,0 z M 176,228 l 4,0 0,4 -4,0 z M 184,228 l 4,0 0,4 -4,0 z M 188,228 l 4,0 0,4 -4,0 z M 192,228 l 4,0 0,4 -4,0 z M 196,228 l 4,0 0,4 -4,0 z M 208,228 l 4,0 0,4 -4,0 z M 212,228 l 4,0 0,4 -4,0 z M 216,228 l 4,0 0,4 -4,0 z M 220,228 l 4,0 0,4 -4,0 z M 224,228 l 4,0 0,4 -4,0 z M 228,228 l 4,0 0,4 -4,0 z M 236,228 l 4,0 0,4 -4,0 z M 4,232 l 4,0 0,4 -4,0 z M 12,232 l 4,0 0,4 -4,0 z M 16,232 l 4,0 0,4 -4,0 z M 20,232 l 4,0 0,4 -4,0 z M 28,232 l 4,0 0,4 -4,0 z M 36,232 l 4,0 0,4 -4,0 z M 40,232 l 4,0 0,4 -4,0 z M 56,232 l 4,0 0,4 -4,0 z M 60,232 l 4,0 0,4 -4,0 z M 64,232 l 4,0 0,4 -4,0 z M 68,232 l 4,0 0,4 -4,0 z M 76,232 l 4,0 0,4 -4,0 z M 88,232 l 4,0 0,4 -4,0 z M 100,232 l 4,0 0,4 -4,0 z M 104,232 l 4,0 0,4 -4,0 z M 112,232 l 4,0 0,4 -4,0 z M 120,232 l 4,0 0,4 -4,0 z M 136,232 l 4,0 0,4 -4,0 z M 160,232 l 4,0 0,4 -4,0 z M 172,232 l 4,0 0,4 -4,0 z M 184,232 l 4,0 0,4 -4,0 z M 188,232 l 4,0 0,4 -4,0 z M 192,232 l 4,0 0,4 -4,0 z M 208,232 l 4,0 0,4 -4,0 z M 212,232 l 4,0 0,4 -4,0 z M 220,232 l 4,0 0,4 -4,0 z M 224,232 l 4,0 0,4 -4,0 z M 232,232 l 4,0 0,4 -4,0 z M 244,232 l 4,0 0,4 -4,0 z M 4,236 l 4,0 0,4 -4,0 z M 12,236 l 4,0 0,4 -4,0 z M 16,236 l 4,0 0,4 -4,0 z M 20,236 l 4,0 0,4 -4,0 z M 28,236 l 4,0 0,4 -4,0 z M 36,236 l 4,0 0,4 -4,0 z M 44,236 l 4,0 0,4 -4,0 z M 52,236 l 4,0 0,4 -4,0 z M 56,236 l 4,0 0,4 -4,0 z M 68,236 l 4,0 0,4 -4,0 z M 80,236 l 4,0 0,4 -4,0 z M 100,236 l 4,0 0,4 -4,0 z M 104,236 l 4,0 0,4 -4,0 z M 112,236 l 4,0 0,4 -4,0 z M 116,236 l 4,0 0,4 -4,0 z M 124,236 l 4,0 0,4 -4,0 z M 128,236 l 4,0 0,4 -4,0 z M 132,236 l 4,0 0,4 -4,0 z M 160,236 l 4,0 0,4 -4,0 z M 168,236 l 4,0 0,4 -4,0 z M 176,236 l 4,0 0,4 -4,0 z M 192,236 l 4,0 0,4 -4,0 z M 196,236 l 4,0 0,4 -4,0 z M 204,236 l 4,0 0,4 -4,0 z M 220,236 l 4,0 0,4 -4,0 z M 228,236 l 4,0 0,4 -4,0 z M 232,236 l 4,0 0,4 -4,0 z M 236,236 l 4,0 0,4 -4,0 z M 244,236 l 4,0 0,4 -4,0 z M 4,240 l 4,0 0,4 -4,0 z M 28,240 l 4,0 0,4 -4,0 z M 36,240 l 4,0 0,4 -4,0 z M 40,240 l 4,0 0,4 -4,0 z M 48,240 l 4,0 0,4 -4,0 z M 52,240 l 4,0 0,4 -4,0 z M 56,240 l 4,0 0,4 -4,0 z M 72,240 l 4,0 0,4 -4,0 z M 100,240 l 4,0 0,4 -4,0 z M 108,240 l 4,0 0,4 -4,0 z M 116,240 l 4,0 0,4 -4,0 z M 124,240 l 4,0 0,4 -4,0 z M 128,240 l 4,0 0,4 -4,0 z M 136,240 l 4,0 0,4 -4,0 z M 140,240 l 4,0 0,4 -4,0 z M 152,240 l 4,0 0,4 -4,0 z M 160,240 l 4,0 0,4 -4,0 z M 164,240 l 4,0 0,4 -4,0 z M 176,240 l 4,0 0,4 -4,0 z M 180,240 l 4,0 0,4 -4,0 z M 184,240 l 4,0 0,4 -4,0 z M 196,240 l 4,0 0,4 -4,0 z M 204,240 l 4,0 0,4 -4,0 z M 228,240 l 4,0 0,4 -4,0 z M 232,240 l 4,0 0,4 -4,0 z M 236,240 l 4,0 0,4 -4,0 z M 4,244 l 4,0 0,4 -4,0 z M 8,244 l 4,0 0,4 -4,0 z M 12,244 l 4,0 0,4 -4,0 z M 16,244 l 4,0 0,4 -4,0 z M 20,244 l 4,0 0,4 -4,0 z M 24,244 l 4,0 0,4 -4,0 z M 28,244 l 4,0 0,4 -4,0 z M 36,244 l 4,0 0,4 -4,0 z M 40,244 l 4,0 0,4 -4,0 z M 44,244 l 4,0 0,4 -4,0 z M 52,244 l 4,0 0,4 -4,0 z M 64,244 l 4,0 0,4 -4,0 z M 68,244 l 4,0 0,4 -4,0 z M 76,244 l 4,0 0,4 -4,0 z M 84,244 l 4,0 0,4 -4,0 z M 88,244 l 4,0 0,4 -4,0 z M 104,244 l 4,0 0,4 -4,0 z M 108,244 l 4,0 0,4 -4,0 z M 112,244 l 4,0 0,4 -4,0 z M 116,244 l 4,0 0,4 -4,0 z M 120,244 l 4,0 0,4 -4,0 z M 136,244 l 4,0 0,4 -4,0 z M 140,244 l 4,0 0,4 -4,0 z M 156,244 l 4,0 0,4 -4,0 z M 164,244 l 4,0 0,4 -4,0 z M 172,244 l 4,0 0,4 -4,0 z M 176,244 l 4,0 0,4 -4,0 z M 184,244 l 4,0 0,4 -4,0 z M 196,244 l 4,0 0,4 -4,0 z M 208,244 l 4,0 0,4 -4,0 z M 224,244 l 4,0 0,4 -4,0 z M 244,244 l 4,0 0,4 -4,0 z " />
	</g>
</svg>
